<svg xmlns="http://www.w3.org/2000/svg" width="16.003" height="12.999" viewBox="0 0 16.003 12.999"><g transform="translate(0 0)"><path d="M16,58.979a6.556,6.556,0,0,1-1.885.517,3.3,3.3,0,0,0,1.443-1.815,6.618,6.618,0,0,1-2.086.8,3.285,3.285,0,0,0-5.594,2.993,9.32,9.32,0,0,1-6.766-3.43,3.287,3.287,0,0,0,1.016,4.382,3.283,3.283,0,0,1-1.487-.412v.041a3.286,3.286,0,0,0,2.633,3.219,3.325,3.325,0,0,1-.865.115,3.15,3.15,0,0,1-.618-.061A3.285,3.285,0,0,0,4.861,67.6a6.586,6.586,0,0,1-4.077,1.4A6.977,6.977,0,0,1,0,68.963,9.28,9.28,0,0,0,5.033,70.44a9.276,9.276,0,0,0,9.34-9.34l-.011-.425A6.555,6.555,0,0,0,16,58.979Z" transform="translate(-0.001 -57.441)"/></g></svg>