<svg xmlns="http://www.w3.org/2000/svg" xmlns:xlink="http://www.w3.org/1999/xlink" width="106.149" height="31.451" viewBox="0 0 106.149 31.451"><defs><style>.a{fill:#fff;}.b{fill:#a6a6a6;}.c{fill:url(#a);}</style><linearGradient id="a" x1="-1.199" y1="2.436" x2="-1.199" y2="1.535" gradientUnits="objectBoundingBox"><stop offset="0" stop-color="#1a1a1a" stop-opacity="0.102"/><stop offset="0.123" stop-color="#212121" stop-opacity="0.153"/><stop offset="0.308" stop-color="#353535" stop-opacity="0.227"/><stop offset="0.532" stop-color="#575757" stop-opacity="0.318"/><stop offset="0.783" stop-color="#858585" stop-opacity="0.42"/><stop offset="1" stop-color="#b3b3b3" stop-opacity="0.51"/></linearGradient></defs><path class="a" d="M108.306,30.6a3.013,3.013,0,0,1-3.016,3.012H6.582A3.017,3.017,0,0,1,3.562,30.6V6.577a3.021,3.021,0,0,1,3.02-3.016h98.707a3.016,3.016,0,0,1,3.016,3.016V30.6Z" transform="translate(-2.862 -2.861)"/><path class="b" d="M102.428,31.451H3.72A3.72,3.72,0,0,1,0,27.739V3.717A3.723,3.723,0,0,1,3.72,0h98.707a3.725,3.725,0,0,1,3.72,3.717V27.738a3.72,3.72,0,0,1-3.72,3.713Z" transform="translate(0 0)"/><path d="M108.306,30.6a3.013,3.013,0,0,1-3.016,3.012H6.582A3.017,3.017,0,0,1,3.562,30.6V6.577a3.021,3.021,0,0,1,3.02-3.016h98.707a3.016,3.016,0,0,1,3.016,3.016V30.6Z" transform="translate(-2.862 -2.861)"/><path class="a" d="M64.834,35.545a4.559,4.559,0,0,1,2.172-3.826,4.671,4.671,0,0,0-3.679-1.988c-1.547-.163-3.049.926-3.837.926-.8,0-2.018-.91-3.326-.883a4.9,4.9,0,0,0-4.122,2.514c-1.783,3.085-.453,7.62,1.255,10.114.854,1.222,1.853,2.585,3.159,2.537,1.278-.052,1.756-.814,3.3-.814s1.977.814,3.31.783c1.372-.021,2.236-1.227,3.06-2.459a10.081,10.081,0,0,0,1.4-2.849,4.411,4.411,0,0,1-2.691-4.054Zm-2.517-7.454a4.487,4.487,0,0,0,1.027-3.216A4.573,4.573,0,0,0,60.387,26.4a4.27,4.27,0,0,0-1.054,3.1A3.777,3.777,0,0,0,62.316,28.091Z" transform="translate(-41.132 -19.985)"/><path class="c" d="M304.979,0H252.108l20.709,31.451h32.162a3.723,3.723,0,0,0,3.72-3.715V3.717A3.724,3.724,0,0,0,304.979,0Z" transform="translate(-202.551 0)"/><g transform="translate(33.38 14.156)"><path class="a" d="M178.65,82.638h-1.787l-.979-3.074h-3.4l-.932,3.074h-1.739l3.371-10.467h2.082Zm-3.06-4.364L174.7,75.54q-.14-.419-.528-1.972h-.031q-.156.668-.5,1.972l-.87,2.733Zm11.713.5a4.273,4.273,0,0,1-1.046,3.043,3.068,3.068,0,0,1-2.327.994,2.33,2.33,0,0,1-2.156-1.07V85.7H180.1V77.571q0-1.209-.062-2.481h1.475l.094,1.2h.031a2.984,2.984,0,0,1,4.776-.3,4.173,4.173,0,0,1,.892,2.781Zm-1.709.061a3.111,3.111,0,0,0-.5-1.818,1.719,1.719,0,0,0-1.46-.745,1.744,1.744,0,0,0-1.126.411,1.908,1.908,0,0,0-.66,1.08,2.188,2.188,0,0,0-.078.51v1.259a2.019,2.019,0,0,0,.505,1.391,1.677,1.677,0,0,0,1.312.567,1.719,1.719,0,0,0,1.475-.73A3.212,3.212,0,0,0,185.594,78.832Zm10.392-.061a4.273,4.273,0,0,1-1.046,3.043,3.07,3.07,0,0,1-2.328.994,2.33,2.33,0,0,1-2.156-1.07V85.7h-1.677V77.571q0-1.209-.062-2.481h1.475l.094,1.2h.031a2.985,2.985,0,0,1,4.777-.3,4.177,4.177,0,0,1,.892,2.781Zm-1.71.061a3.111,3.111,0,0,0-.5-1.818,1.716,1.716,0,0,0-1.459-.745,1.752,1.752,0,0,0-1.127.411,1.907,1.907,0,0,0-.659,1.08,2.239,2.239,0,0,0-.079.51v1.259a2.026,2.026,0,0,0,.5,1.391,1.68,1.68,0,0,0,1.314.567,1.717,1.717,0,0,0,1.475-.73A3.212,3.212,0,0,0,194.276,78.832Zm11.418.869a2.8,2.8,0,0,1-.931,2.175,4.126,4.126,0,0,1-2.852.916,4.979,4.979,0,0,1-2.711-.652l.388-1.4a4.667,4.667,0,0,0,2.423.653,2.287,2.287,0,0,0,1.475-.427,1.4,1.4,0,0,0,.529-1.14,1.461,1.461,0,0,0-.436-1.072,4.041,4.041,0,0,0-1.444-.807q-2.75-1.025-2.75-3a2.647,2.647,0,0,1,.971-2.112,3.839,3.839,0,0,1,2.571-.823,5.082,5.082,0,0,1,2.377.5l-.421,1.367a4.156,4.156,0,0,0-2.012-.481,2.046,2.046,0,0,0-1.388.435,1.245,1.245,0,0,0-.421.949,1.282,1.282,0,0,0,.482,1.025,5.433,5.433,0,0,0,1.522.807,5.158,5.158,0,0,1,1.988,1.273,2.652,2.652,0,0,1,.64,1.815Zm5.56-3.353H209.4v3.664q0,1.4.979,1.4a2.947,2.947,0,0,0,.745-.078l.046,1.273a3.8,3.8,0,0,1-1.3.186,2.011,2.011,0,0,1-1.554-.606,2.973,2.973,0,0,1-.559-2.035v-3.8h-1.1V75.087h1.1V73.705l1.647-.5v1.879h1.849Zm8.325,2.453a4.139,4.139,0,0,1-.994,2.857,3.545,3.545,0,0,1-2.764,1.149,3.379,3.379,0,0,1-2.649-1.1,4.014,4.014,0,0,1-.987-2.78,4.106,4.106,0,0,1,1.017-2.872,3.527,3.527,0,0,1,2.742-1.118,3.45,3.45,0,0,1,2.671,1.1A3.962,3.962,0,0,1,219.578,78.8Zm-1.739.039a3.379,3.379,0,0,0-.449-1.781,1.66,1.66,0,0,0-1.507-.9,1.684,1.684,0,0,0-1.538.9,3.435,3.435,0,0,0-.45,1.812,3.369,3.369,0,0,0,.45,1.781,1.72,1.72,0,0,0,3.031-.015A3.392,3.392,0,0,0,217.84,78.84Zm7.193-2.275a2.919,2.919,0,0,0-.529-.046,1.583,1.583,0,0,0-1.367.669,2.518,2.518,0,0,0-.419,1.49v3.96h-1.677v-5.17q0-1.188-.049-2.376h1.461l.061,1.444h.046a2.589,2.589,0,0,1,.839-1.2,2.028,2.028,0,0,1,1.212-.4,2.694,2.694,0,0,1,.419.031Zm7.5,1.942a3.932,3.932,0,0,1-.061.761h-5.032a2.189,2.189,0,0,0,.73,1.71,2.5,2.5,0,0,0,1.646.527,5.567,5.567,0,0,0,2.036-.356l.263,1.163a6.3,6.3,0,0,1-2.531.466,3.67,3.67,0,0,1-2.758-1.032,3.815,3.815,0,0,1-1-2.772,4.322,4.322,0,0,1,.933-2.841,3.215,3.215,0,0,1,2.639-1.21,2.814,2.814,0,0,1,2.471,1.21A4.073,4.073,0,0,1,232.534,78.507Zm-1.6-.435a2.27,2.27,0,0,0-.326-1.289,1.465,1.465,0,0,0-1.336-.7,1.59,1.59,0,0,0-1.335.683,2.5,2.5,0,0,0-.5,1.3Z" transform="translate(-169.812 -72.016)"/></g><g transform="translate(34.362 5.154)"><path class="a" d="M176.012,31.676a10.712,10.712,0,0,1-1.206-.061v-5.06a9.133,9.133,0,0,1,1.42-.107c1.924,0,2.809.946,2.809,2.488C179.036,30.715,177.989,31.676,176.012,31.676Zm.282-4.58a3.365,3.365,0,0,0-.664.053V31a4.352,4.352,0,0,0,.557.023,1.823,1.823,0,0,0,1.978-2.061A1.678,1.678,0,0,0,176.294,27.1Zm5.5,4.618a1.766,1.766,0,0,1-1.787-1.908,1.807,1.807,0,0,1,1.848-1.962,1.752,1.752,0,0,1,1.787,1.9,1.817,1.817,0,0,1-1.848,1.969Zm.031-3.267c-.6,0-.977.557-.977,1.335s.389,1.321.969,1.321.969-.6.969-1.336S182.408,28.447,181.828,28.447Zm8-.526-1.16,3.709h-.756l-.481-1.611a12.211,12.211,0,0,1-.3-1.2h-.016a8.023,8.023,0,0,1-.3,1.2l-.511,1.611h-.764l-1.092-3.709h.847l.42,1.763q.149.63.252,1.191h.016a12.215,12.215,0,0,1,.305-1.183l.527-1.77h.672l.5,1.733c.122.42.221.832.3,1.221h.022a10.671,10.671,0,0,1,.252-1.221l.451-1.733h.81ZM194.1,31.63h-.824V29.5c0-.656-.252-.985-.748-.985a.856.856,0,0,0-.824.908V31.63h-.824V28.981c0-.328-.008-.68-.031-1.061h.725l.039.573h.023a1.333,1.333,0,0,1,1.176-.648c.779,0,1.29.6,1.29,1.564Zm2.274,0h-.825V26.219h.825Zm3.006.084a1.766,1.766,0,0,1-1.787-1.908,1.807,1.807,0,0,1,1.847-1.962,1.751,1.751,0,0,1,1.787,1.9,1.817,1.817,0,0,1-1.847,1.969Zm.031-3.267c-.6,0-.977.557-.977,1.335s.39,1.321.968,1.321.969-.6.969-1.336S199.989,28.447,199.408,28.447Zm5.067,3.183-.06-.427h-.022a1.267,1.267,0,0,1-1.085.511,1.079,1.079,0,0,1-1.137-1.092c0-.915.794-1.389,2.168-1.389v-.068c0-.488-.259-.733-.77-.733a1.736,1.736,0,0,0-.969.275l-.168-.542a2.372,2.372,0,0,1,1.274-.321c.969,0,1.459.511,1.459,1.534v1.366a5.6,5.6,0,0,0,.053.886Zm-.113-1.847c-.916,0-1.375.222-1.375.748a.526.526,0,0,0,.566.58.789.789,0,0,0,.81-.755Zm4.807,1.847-.039-.6h-.023a1.244,1.244,0,0,1-1.191.68,1.691,1.691,0,0,1-1.557-1.893,1.76,1.76,0,0,1,1.625-1.977,1.115,1.115,0,0,1,1.046.5h.016V26.219h.825v4.411c0,.359.009.694.031,1h-.734Zm-.122-2.183a.9.9,0,0,0-.869-.962c-.611,0-.985.542-.985,1.3s.388,1.26.968,1.26a.926.926,0,0,0,.885-.985Zm6.058,2.267a1.765,1.765,0,0,1-1.786-1.908,1.806,1.806,0,0,1,1.847-1.962,1.751,1.751,0,0,1,1.787,1.9,1.817,1.817,0,0,1-1.848,1.969Zm.031-3.267c-.595,0-.976.557-.976,1.335s.389,1.321.968,1.321.969-.6.969-1.336S215.717,28.447,215.136,28.447Zm6.251,3.183h-.825V29.5c0-.656-.252-.985-.748-.985a.856.856,0,0,0-.824.908V31.63h-.825V28.981c0-.328-.008-.68-.031-1.061h.725l.039.573h.023a1.332,1.332,0,0,1,1.175-.649c.779,0,1.291.6,1.291,1.564Zm5.547-3.091h-.907v1.8c0,.459.159.687.48.687a1.624,1.624,0,0,0,.366-.039l.023.626a1.827,1.827,0,0,1-.64.092c-.65,0-1.038-.359-1.038-1.3v-1.87h-.541v-.618h.541v-.68l.809-.245v.923h.907v.619ZM231.3,31.63h-.824V29.516c0-.664-.251-1-.748-1a.809.809,0,0,0-.825.878V31.63h-.824V26.219h.824v2.228h.016a1.251,1.251,0,0,1,1.116-.6c.785,0,1.265.61,1.265,1.58V31.63Zm4.472-1.656H233.3a1.065,1.065,0,0,0,1.169,1.1,2.787,2.787,0,0,0,1-.175l.128.573a3.1,3.1,0,0,1-1.245.229,1.722,1.722,0,0,1-1.847-1.87,1.812,1.812,0,0,1,1.754-1.992A1.558,1.558,0,0,1,235.8,29.6a1.589,1.589,0,0,1-.028.374Zm-.756-.588c0-.573-.289-.977-.816-.977a.978.978,0,0,0-.9.977Z" transform="translate(-174.806 -26.219)"/></g></svg>