<svg xmlns="http://www.w3.org/2000/svg" width="26.038" height="22.153" viewBox="0 0 26.038 22.153"><defs><style>.a{fill:#f2f2f2;}.b{fill:#f14336;}.c{fill:#d32e2a;}</style></defs><g transform="translate(1.255)"><path class="a" d="M57.145,122.808l-1.72,19.828H34.765l-1.386-19.445,11.716,7.53Z" transform="translate(-33.379 -120.483)"/><path class="a" d="M61.285,60.983,49.7,68.68l-11.586-7.7H61.285Z" transform="translate(-37.936 -60.983)"/></g><path class="b" d="M2.245,114.565V132.2H.908c-.5,0-.908-.645-.908-1.441v-18.8l1.467.063Z" transform="translate(0 -110.05)"/><path class="c" d="M454.533,109.146v18.734c0,.793-.407,1.436-.908,1.436h-1.337V111.736l.74-2.768Z" transform="translate(-428.496 -107.164)"/><path class="b" d="M26.038,61.891V62.9L23,64.537l-9.982,5.38-9.982-5.38L0,62.9V61.891c0-.5.55-.908,1.228-.908h.711l11.081,5.972L24.1,60.983h.71C25.488,60.983,26.038,61.39,26.038,61.891Z" transform="translate(0 -60.983)"/><path class="c" d="M2.245,113.6,0,113.256v-1.289Z" transform="translate(0 -110.05)"/></svg>