<svg xmlns="http://www.w3.org/2000/svg" width="479.282" height="341.578" viewBox="0 0 479.282 341.578"><defs><style>.a{fill:#b97262;}.b{fill:#484f5b;}.c{fill:#8ec3cb;}.d{fill:#3b455a;}.e{fill:#ccd2d9;}.f{fill:#7fc5a3;}.g{fill:#eac5b0;}.h{fill:#fff;}.i{fill:#ebb044;}.j{fill:#e1467c;}.k{fill:#d34e4e;}.l{fill:#7b42f6;}</style></defs><path class="a" d="M124.851,75.079l2.914-2.838,3.771,1.386,2.17,3.634-.99,3.1-3.063,2.049,1.151.358-.213,1.094-4.813,2.52c-1.151-1.386-5.06-2.453-5.682-3.2l3.218-3.189Z"/><path class="b" d="M30.073,330.087l-.115,1.267-.374,4.2,7.272,5.112,4.191-3.753L37.6,332.256l-.322-.226-.173.484Z"/><path class="c" d="M60.335,239.559c-8.239.624-15.885.882-21.878.975l.213,32.444-8.993,56.971.392.139,7.041,2.427.173-.484,23.628-67.149.823-13.7Z"/><path class="c" d="M57.208,239.559l4.5,11.6,2.113,17.81,2.407,64.27h.04l.029-.928,7.185.252L84.82,264.331l.61-27.849c-7.79,1.433-15.954,2.374-23.663,3Z"/><path class="b" d="M73.98,332.587l-.5-.02-7.185-.252-.029.929-.109,3.3,7.542,4.489,3.978-4.084Z"/><path class="a" d="M48.71,99.334c-.242-.7-.484-1.4-.72-2.1l.052-.046c3.184-2.785,4.64-7.625,4.468-12.2a27.535,27.535,0,0,0-1.877-8.62,19.031,19.031,0,0,0-2.908-4.25c-2.05-2.241-4.825-4.018-7.531-3.905-1.1.04-.645,1.034-1.975.252a2.579,2.579,0,0,1-.576-.6c-.2.245-.328.424-.368.464a19.653,19.653,0,0,1-4.226,3.375c-2.3,1.691-3.581,5.271-3.023,8.62.23,1.4.743,2.838.449,4.177a12.528,12.528,0,0,1-1.589,2.99,6.069,6.069,0,0,0-.576,1.989c2.55,5.3,7.387,9.621,12.367,10.152v.06c.069.338.138.663.219,1.007.363,1.472,1.232,3.024,2.562,3.137a3.638,3.638,0,0,0,1.762-.484l3.42-1.592a.638.638,0,0,0,.331-.148.782.782,0,0,0,.225-.317.911.911,0,0,0,.06-.4.884.884,0,0,0-.121-.385A11.49,11.49,0,0,1,48.71,99.334Z"/><path class="d" d="M73.254,62.162c-2.7-.186-5.084,1.631-7.272,3.382-.392-3.057-2.942-5.159-5.389-5.968s-5.026-.822-7.416-1.9c-2.879-1.326-5.717-4.164-8.573-3.229-2.573.835-4.18,4.442-5.757,7.638l-.127-.159a13.308,13.308,0,0,0-4.163-3.64c-5.124-2.44-4.537,4.933-8.481,4.542-.95-.093-1.727-.961-2.654-1.419-1.693-.855-3.581-.179-5.1.889a41.188,41.188,0,0,1-4.485,3.315c-1.451.7-3.092.882-4.439,1.81C7.372,68.833,7.792,71.372,7.43,73.68c-.4,2.559-1.008,6.007-2.211,8.136A22.66,22.66,0,0,1,1.891,85.6,6.346,6.346,0,0,0,.037,90.5c.242,1.91,1.474,3.315,1.837,5.079.489,2.652.236,4.118,1.272,6.777A8.868,8.868,0,0,0,5.311,106c1.376,1.1,3.126.808,4.635.285s3.04-1.254,4.606-.9c3.454.776,3.247,4.682,4.479,7.752a8.849,8.849,0,0,0,3.984,4.5,6.614,6.614,0,0,0,6.713,0c3.028-1.949,4.4-6.478,3.794-10.649a35.96,35.96,0,0,0-1.186-4.363,13.323,13.323,0,0,1-.357-1.671c-.276-2.022.4-4.979-1.376-6.352a12.73,12.73,0,0,1-1.359-.922,3.07,3.07,0,0,1-.685-1.253,6.88,6.88,0,0,1-.271-2.937,6.072,6.072,0,0,1,.576-1.989,12.783,12.783,0,0,0,1.589-2.99c.294-1.326-.219-2.778-.449-4.177-.576-3.382.691-6.962,3.023-8.62a19.651,19.651,0,0,0,4.226-3.375c.04-.04.173-.219.368-.464a2.579,2.579,0,0,0,.576.6c1.33.782.875-.212,1.975-.252,2.706-.113,5.481,1.664,7.531,3.905a19.031,19.031,0,0,1,2.908,4.25,22.173,22.173,0,0,1,2.343,9.236c.121,4.588-1.94,6.631-.046,11.232a16.653,16.653,0,0,0,1.537,2.9,13.2,13.2,0,0,0,6.287,5.272h.829A9.668,9.668,0,0,0,65.5,103.7a12.351,12.351,0,0,0,4.009-3.853,14.6,14.6,0,0,0,2.168-5.47c.242-1.326.357-2.838,1.123-3.813.622-.782,1.56-1.087,2.194-1.85,2.631-3.183-2.389-8.965-1.261-13.341.714-2.765,3.673-3.846,4.312-6.631C78.793,65.577,75.948,62.348,73.254,62.162Z"/><path class="e" d="M129.826,84.66c-.881-.186-10.041-3.176-10.041-3.176.536.093-22.085,19.229-24.227,20.708-6.581,4.575-19-1-26.743-1.386a11.982,11.982,0,0,1-3.287,2.864A9.671,9.671,0,0,1,61.584,105a5.88,5.88,0,0,1-.829,0,13.2,13.2,0,0,1-6.287-5.272c-.944-.252-1.7-.438-2.205-.564l-3.552.166c.132.4.271.789.409,1.187a.881.881,0,0,1,.121.385.908.908,0,0,1-.06.4.781.781,0,0,1-.225.317.637.637,0,0,1-.331.148l-3.42,1.592a3.638,3.638,0,0,1-1.762.484c-1.33-.113-2.2-1.664-2.562-3.136-.081-.332-.15-.664-.219-1.008l-6.748.318-1.577,2.539a36.058,36.058,0,0,1,1.186,4.363c.61,4.171-.766,8.7-3.794,10.649a6.608,6.608,0,0,1-6.713,0l-1.4,91.225,6.621,34.426s4.761.153,12.125.04c5.682-.086,12.914-.332,20.727-.922l1.347-.106A225.037,225.037,0,0,0,84.815,239.4c2.838-.524,5.625-1.107,8.314-1.777,0,0,6.908-21.636-3.017-75.921-1.56-8.527-3.719-18.115-5.815-26.6,6.621-6.545,24.359-17.85,30.157-25.363,6.333-8.228,15.453-25.063,15.654-25.024Z"/><path class="f" d="M429.026,91.443,413.544,94.58l-27.451,24.487-36.652-11.02L345.2,118.191l34.072,18.885,14.849,4.31,19.287-7.248Z"/><path class="g" d="M348.445,114.684l-5.734,3.308-4.094-.537-.029-1.611,2.407-1.1-7.778-1.942-.714-4.324,9.321-2.546,8.446,2.832Z"/><path class="d" d="M411.869,324.133l-7.243,5.9-2.412,4.509a25.468,25.468,0,0,0,4.22,1.737c1.5.345,13.242-1.737,13.242-1.737v-7.99Z"/><path class="d" d="M468.038,326.646l-2.666,5.59s-1.67,7.055-.225,6.571,9.506-2.1,9.834-3.316,3.823-5.967,4.237-6.836-1.335-6.63-1.335-6.63Z"/><path class="e" d="M418.6,195.127l23.34,80.231,26.1,51.275,10.122-3.4-17.3-58.476s-2.09-58.747-5.51-76.027Z"/><path class="e" d="M400.124,207.234l9.039,119.325H420l3.311-61.048,6.224-54.046-23.692-31.98Z"/><path class="f" d="M399.778,130.883c1.123-6.147,1.56-12.771,4.209-18.5s7.64-10.078,11.514-14.959c1.636-2.062,3.374-4.21,5.8-5.2a15.144,15.144,0,0,1,5.3-.789l16.316-.471a13.139,13.139,0,0,1,5.855.723c2.706,1.24,4.238,4.111,5.573,6.8,3.42,6.843,4.031,14.435,4.359,22.173,0,.073,4.243,97.192.869,95.369a45.878,45.878,0,0,0-13.72-4.317,132.492,132.492,0,0,0-20.208-2.2l-11.924.928h-7.2c-4.318.484-3.961,1.99-8.4,1.665C395.27,211.9,398.488,137.931,399.778,130.883Z"/><path class="g" d="M431.017,94.58l8.1-.4a54.23,54.23,0,0,0-.081-7.433c2.3-.763,4.934-1.989,5.453-4.642a9.013,9.013,0,0,0,0-2.573l-1.071-10.609a10.493,10.493,0,0,0-.8-3.554,6.915,6.915,0,0,0-4.658-3.315,14.954,14.954,0,0,0-13.685,2.931,8.258,8.258,0,0,0-2.447,3.315c-.76,2.089-.38,4.462,0,6.684l1.088,6.14c.421,2.354,1.054,5.046,2.954,6.04,1.013.524,2.234.471,3.138,1.213C430.614,89.7,430.257,92.484,431.017,94.58Z"/><path class="d" d="M416.066,49.611a6.9,6.9,0,0,0,1.825-.577c1.957-.981,3.327-2.944,5.406-3.866a16.68,16.68,0,0,1,13.593.4c3.95,1.916,9.333,2.652,12.868,5.218a11.985,11.985,0,0,1,3.483,4.423,21.037,21.037,0,0,1,2,10.019,20.617,20.617,0,0,1-2.9,9.721,26.043,26.043,0,0,1-2.7,3.5c-2.015,2.254-4.428,5.039-7.087,5.749.069-2.692,2.608-11.053.921-13.374-2.246-3.077-6.639-3-9.788-2.652-3.754.4-6.845-.981-10.588-.769-1.9.113-4.064.55-5.527-.862a38.2,38.2,0,0,1-6.114-9.11,6.582,6.582,0,0,1-.238-3.191A6.1,6.1,0,0,1,412.5,51.4,5.271,5.271,0,0,1,416.066,49.611Z"/><path class="h" d="M431.749,94.507q-.334,2.451-.887,4.854s-15.044,49.9-16.449,53.881a8.374,8.374,0,0,0-.477,2.805l3.454,11.683,6.811-9.76,9.3-55.91,2.257-2.234.795-5.669Z"/><path class="i" d="M355.85,290.861V252.078a5.273,5.273,0,0,1-.19-.524V200.869H311.12a7.186,7.186,0,0,1-2.391-2.028,8.488,8.488,0,0,1-1.447-2.987,9.244,9.244,0,0,1-.244-3.409,8.871,8.871,0,0,1,1-3.219c6.051-11.173,7.433-24.991-3.782-32.59-9.1-6.166-21.579-2.208-26.623,8.481-4.145,8.785-.748,16.523,3.144,24.381a8.943,8.943,0,0,1,.887,3.185,9.222,9.222,0,0,1-.309,3.327,8.438,8.438,0,0,1-1.454,2.9,7.158,7.158,0,0,1-2.348,1.97H233.574V251.03a8.541,8.541,0,0,0,1.514,3.329,7.122,7.122,0,0,0,2.659,2.178,6.176,6.176,0,0,0,3.227.555,6.405,6.405,0,0,0,3.1-1.188c9.7-6.962,21.7-8.547,28.3,4.369,5.349,10.477,1.394,24.613-7.887,30.415-7.634,4.768-13.755.928-20.658-3.388-4.559-2.851-9.211-.663-10.242,4.9v49.266h30.865v.112h66.348v-.119h24.895V291.365A2.62,2.62,0,0,1,355.85,290.861Z"/><path class="j" d="M272.4,260.18c-6.6-12.916-18.6-11.325-28.3-4.349a6.368,6.368,0,0,1-3.532,1.22,6.29,6.29,0,0,1-3.581-1.015,7.6,7.6,0,0,1-2.637-2.968,9.023,9.023,0,0,1-.964-4.1v-46.74H190.077a6.979,6.979,0,0,0-2.547,1.88,8.3,8.3,0,0,0-1.621,2.94,9.227,9.227,0,0,0-.395,3.454,8.961,8.961,0,0,0,.907,3.323c3.9,7.858,7.295,15.6,3.155,24.381-5.038,10.689-17.52,14.654-26.616,8.494-11.221-7.592-9.845-21.41-3.8-32.589a8.9,8.9,0,0,0,1.014-3.38,9.2,9.2,0,0,0-.353-3.552,8.324,8.324,0,0,0-1.651-3.028,6.961,6.961,0,0,0-2.626-1.909H112.133v-.385h-.6v-.849h-.184v140.57H233.4V294.222a9.024,9.024,0,0,1,.937-4.023,7.63,7.63,0,0,1,2.554-2.949,6.216,6.216,0,0,1,6.988-.03c6.828,4.483,13.547,8.395,21.175,3.621C274.313,285.032,277.75,270.657,272.4,260.18Z"/><path class="k" d="M369.938,176.263,409.232,46.2l-.576-.226L293.935,0,280.266,45.327a8.2,8.2,0,0,1-2.084,3.511,6.642,6.642,0,0,1-3.344,1.8,6.146,6.146,0,0,1-3.676-.405,7.151,7.151,0,0,1-2.986-2.5C261,37.483,250.121,31.436,240.2,41.1c-8.06,7.871-8.9,22.743-1.791,31.741,5.838,7.4,13.306,6.246,21.026,4.6a6.136,6.136,0,0,1,3.618.317,7.062,7.062,0,0,1,3,2.358,8.625,8.625,0,0,1,1.569,3.767,9.224,9.224,0,0,1-.277,4.166l-13.512,44.731,40.405,16.192a6.184,6.184,0,0,0,3.131-.577,7.107,7.107,0,0,0,2.59-2.1,8.509,8.509,0,0,0,1.521-3.205,9.277,9.277,0,0,0,.139-3.648c-1.439-8.9-2.441-17.492,3.978-24.222,7.807-8.189,20.727-7.207,27.561,2.049,8.429,11.418,3.184,23.95-5.711,32.218a8.048,8.048,0,0,0-1.986,2.983,9.16,9.16,0,0,0-.6,3.694,8.992,8.992,0,0,0,.92,3.6,7.716,7.716,0,0,0,2.238,2.734l24.371,9.761,16.2,6.491.576.226.817-2.719Z"/><path class="l" d="M228.174,132.328c-1.572-5.4-6.448-6.909-10.68-3.448-6.4,5.238-12.09,9.9-20.151,6.22-9.816-4.483-15.217-17.963-11-29.1,5.182-13.739,17.272-13.825,27.635-8.249a6.23,6.23,0,0,0,3.2.75,6.32,6.32,0,0,0,3.145-1,7.479,7.479,0,0,0,2.411-2.53,8.844,8.844,0,0,0,1.156-3.514L220.8,61.984l-2.056-19.607-.074-.663L204.88,43.637,102.7,57.806l-5.217.723.069.663,1.9,18.108,3.3,31.529c-.034.186-.086.365-.132.544l4.03,38.5c.081.152.161.305.236.471l5.216,49.73.576-.087.052.385,15.717-2.188,27.377-3.813a6.669,6.669,0,0,1,2.8,1.533,7.954,7.954,0,0,1,1.953,2.774,9.183,9.183,0,0,1,.076,6.965c-4.836,11.936-4.767,25.86,7.162,31.828,9.673,4.853,21.654-.809,25.54-12.115,3.2-9.283-.984-16.51-5.671-23.771a8.717,8.717,0,0,1-1.237-3.177,9.252,9.252,0,0,1,.041-3.483,8.637,8.637,0,0,1,1.311-3.138,7.318,7.318,0,0,1,2.338-2.21l43.18-6.014-2.147-20.435Z"/><path class="a" d="M101.77,154.388l-.132,4.788,7.335,3.07,4.226-3.687.005-5.57-4.082-.258L109,151.5l-1.336-.995Z"/><path class="e" d="M80.3,143.812l22.626,5.152s-1.3,15.914-1.289,14.588-29.714-2.878-29.714-2.878Z"/><path class="f" d="M444.824,108.484,417.085,138.64l-41.142-14.123L373,135.173,418.219,159h11.9l25.142-24.639Z"/><path class="g" d="M373.265,134.211l-7.162.153-4.375-7.108,11.117-7.115,3.1,4.376Z"/></svg>