<svg xmlns="http://www.w3.org/2000/svg" width="372.728" height="265.637" viewBox="0 0 372.728 265.637"><defs><style>.a{fill:#78c2ff;}.b{fill:#0e2d3d;}.c{fill:#285173;}.d{fill:#1d3b54;}.e{fill:#eea886;}.f{fill:#eddad3;}.g{fill:#d6c5be;}.h{fill:#fae6de;}.i{fill:#eb4747;}.j{fill:#e8734d;}.k{fill:#eea987;}.l{fill:#a77860;}.m{fill:#869135;}.n{fill:#48753a;}.o{fill:#bbd070;}.p{fill:#97a43c;}.q{fill:#4da8f2;}.r{fill:#c2bebc;}.s{fill:#73c0ff;}.t{fill:#dae8f5;}.u{fill:#1a598c;}.v{fill:#2273b5;}.w{fill:#6eb2eb;}.x{fill:#e3f2ff;}.y,.z{opacity:0.58;}.ao,.z{fill:#e0f1ff;}.aa,.ab{opacity:0.82;}.ab{fill:#87c9ff;}.ac{fill:#d6d6d6;}.ad{fill:#e8e8e8;}.ae{fill:#c2c2c2;}.af{fill:#d4d8e8;}.ag{fill:#a9adba;}.ah{fill:#1c4154;}.ai{fill:#2a617d;}.aj{fill:#326ea0;}.ak{fill:#215b8a;}.al{fill:#16202e;}.am{fill:#344052;}.an,.ao{opacity:0.86;}.ap{fill:#a1d4ff;}</style></defs><path class="a" d="M48.693,119.4H29.753v16.61l2.89-2.89h16.05Z"/><path class="b" d="M20.483,124.8s4.63,2.27,3.48,8.43-1.65,7-.37,9.4,2.8,12.69,1.64,14.64-14.22-8.58-16.09-17.38,1.15-12.73,2.2-14.19S16.393,122.69,20.483,124.8Z"/><path class="c" d="M21.763,147.05a6.441,6.441,0,0,1,3.68,2.43c.92,1.36,1,4.37,1.13,4.94s1.89,7,1.89,7l-4.91,3.27Z"/><path class="d" d="M39.913,256.84s3.2,4.31,2.76,5-3.81.78-5.86,0-2.1-5.84-3-8c-.39-.91.44-3.59,1.61-3.79a5,5,0,0,1,2.44.38S36.623,253.47,39.913,256.84Z"/><path class="e" d="M37.863,250.38a20.555,20.555,0,0,1,.92,3.59c.2,1.46,2.28,4.55,2.18,4.93s-2.73.75-3.81-.26-1.76-3.94-2-5.69a13.993,13.993,0,0,0-.5-2.44S36.833,249.3,37.863,250.38Z"/><path class="d" d="M12.013,256.91s3.09,4.24,2.65,4.93-3.81.78-5.87,0-2.1-5.84-3-8c-.38-.91.45-3.59,1.62-3.79a5.294,5.294,0,0,1,2.54.42S8.723,253.54,12.013,256.91Z"/><path class="e" d="M9.923,250.45a28.383,28.383,0,0,0,.63,3.42c.39,1.42,2.49,4.65,2.4,5s-2.74.75-3.81-.26-1.91-3.92-2-5.69a9.251,9.251,0,0,1,.25-2.92,2.4,2.4,0,0,1,2.53.45Z"/><path class="e" d="M25.363,180.2s2.75,12.79,3.38,16,2.4,18.83,2.59,21.48,2.87,12.66,2.74,13.6,4,20,4,20a2.481,2.481,0,0,1-2.88.1c-.76-.53-9-17.82-9-22.56,0-6.55-4.84-15.1-5.46-16.57-5.83-13.56-4.72-17.77-5.44-18.65s-.83.54-1.27,2.5-1.39,18.89-2,21-.12,9.41-.44,13.08-1.7,20.23-1.7,20.23a1.51,1.51,0,0,1-2.58.05c-.33-.36-2.61-18.47-2.67-22.82s-.13-10.37-.25-12.26c-1.17-18.06-4.05-20.64.48-33.43C13.393,158.06,25.363,180.2,25.363,180.2Z"/><path class="d" d="M6.894,176.62s-7.84,11-4.47,34.3c0,0,18.59,2.53,28.55-2.93,0,0-4.12-24.05-5.61-27.79S6.894,176.62,6.894,176.62Z"/><path class="d" d="M33.7,253.44v4.52h.58v-3.49Z"/><path class="d" d="M5.684,253.44v4.52h.58v-3.49Z"/><path class="f" d="M17.4,145.45a30.091,30.091,0,0,0,3.89,1.57c1,.2,4.89,5.25,5.58,7.1s0,4.61-1.41,7.85-.08,4.34-.72,7.58a75.814,75.814,0,0,0-1.08,11.93c.12,1.81-16.22,2.15-19.95-1.14,0,0,3.75-5.61,4.23-6.42s.08-5.17-.36-6.29S4.2,156.96,4.2,156.96s-2.4-7.33-.23-9c1.88-1.46,7-2,7.94-2.31A15.8,15.8,0,0,1,17.4,145.45Z"/><path class="g" d="M18.323,151.89l1.76-2-1.52-5.41A35.293,35.293,0,0,0,18.323,151.89Z"/><path class="e" d="M18.783,142.12s-.08.73-.17,1.73c0,.44-.09.94-.13,1.45a34,34,0,0,0-.16,3.84s-3,3-6.41-3.51a8.92,8.92,0,0,0,.36-6.34C11.193,135.63,18.783,142.12,18.783,142.12Z"/><path class="e" d="M18.323,149.14v2.75l-3.45-2.58Z"/><path class="g" d="M18.323,151.89l-1.43-1.77-4.83-4.82-1.56,1.51Z"/><path class="c" d="M11.393,145.76s4,6.15,4.25,8.86-1.51,22.95-2.87,29.46-11.19-.73-11.19-.73,6.6-10.7,4.07-19.26-3.46-12-3.46-12,.87-4.77,4-5.44C8.873,146.07,11.393,145.76,11.393,145.76Z"/><path class="c" d="M27.133,154.94s.73,2.58-2.11,8.3c0,0,0,7.32.12,9.6s1.7,10.51,1.7,10.51l-3.89,2.07a.793.793,0,0,1-.422.112.777.777,0,0,1-.418-.129.789.789,0,0,1-.35-.763c.79-6.58,3.39-31.53-2.22-38.24l2.25.67A18.172,18.172,0,0,1,27.133,154.94Z"/><path class="h" d="M20.083,149.84l2.21.61-3.73-6.02Z"/><path class="h" d="M16.893,150.12l-2.02,2.64-4.14-6.91,1.33-.55Z"/><path class="i" d="M20.4,160.361l-.573.453,5.363,6.787.573-.453Z"/><path class="e" d="M19.483,166.83a1.586,1.586,0,0,0,.85-.24c.58-.44.79-1.52,1.82-1.44s1.5,3.3,1.25,3.9-1.69.92-3.79.5S19.483,166.83,19.483,166.83Z"/><path class="e" d="M21.8,165.17a29.387,29.387,0,0,1,3.18-.87c1.49-.33,3.28-.43,3.45-.17s-1.45.53-2.92.95-1,.52-1,.52-.09,0,1.45-.19,3.36-.15,3.53.18c.08.17,0,.27-.57.43.36,0,.41.07.42.22.07.74-2.34,1.33-3.3,1.57.74-.18,1.3-.23,1,.27s-3.75,1.26-5,1.62S21.8,165.17,21.8,165.17Z"/><path class="c" d="M6.733,146.77c-1-.33-4,.73-4.5,3.78s-.71,6.45-1.18,8.1-1.67,8.93-.66,9.54a11.505,11.505,0,0,0,5.62,1.15c2.77,0,13.48.48,13.48.48l.67-3.8s-4.07-.21-6.18-.53c-1.87-.29-4.47-1.09-7.54-1.42a51.163,51.163,0,0,1,1.12-5.79C8.013,157,11.293,148.24,6.733,146.77Z"/><path class="e" d="M26.333,166.31l.5,1.22-1.08-.77Z"/><path class="j" d="M20.423,172.69l10.8-2.14,8-17.12-11.52,1.2Z"/><path class="e" d="M32.563,167.69a8.957,8.957,0,0,0,1.12-1.32c.53-.77,2.25-3.71,2.09-3.89a5.785,5.785,0,0,0-3.18.17c-.46.42.46.58.46.58s-1.4.15-1.3.54.94.29.94.29-1.12.21-1,.56.71.34.71.34-1,.13-.88.51,1.71.73,1.5,1A6.663,6.663,0,0,0,32.563,167.69Z"/><path class="k" d="M19.8,125.48s6.73,2.12,3.08,13.73-12.87-1.35-11.87-8.42S19.8,125.48,19.8,125.48Z"/><path class="b" d="M23.573,132.26a15.212,15.212,0,0,1-8.94,3.69s-2.15,2.52-2.31,3.51c0,0-5-8.51,1.14-13.61S25.823,130.16,23.573,132.26Z"/><path class="k" d="M14.7,136.18c0-.85-.57-2.77-1.82-2.23s.07,4.45.91,4.21C13.793,138.16,14.8,138.18,14.7,136.18Z"/><path class="l" d="M18.613,143.85c0,.44-.09.94-.13,1.45-3.89-1.92-4.48-4.69-4.5-4.77C16.753,144.11,18.613,143.85,18.613,143.85Z"/><path class="m" d="M130.723,162.98a15.783,15.783,0,0,0,4,11.88c4.85,5.16,15.8,3.32,15.8,3.32s-1.81-6.1-5.78-8.61S133.013,166.19,130.723,162.98Z"/><path class="n" d="M136.374,150.23a19.888,19.888,0,0,0-.56,15.77c3.43,8.24,17.16,10.91,17.16,10.91s.56-8-3-12.71S137.594,155.01,136.374,150.23Z"/><path class="o" d="M316.013,53.35s6.77,10.34,1,15.81-6.41-.64-6.41-.64-3.08.2,3-6.79C316.543,58.44,316.013,53.35,316.013,53.35Z"/><path class="p" d="M334.2,48.08s4.85,9.38-6.57,18.16-11.37,14.84-11.37,14.84S308.223,59.35,334.2,48.08Z"/><path class="n" d="M314.8,77.09c-4.35-.13,2-11.15,9.08-13.39s12.72-1.31,17-4C340.9,59.69,336.173,77.69,314.8,77.09Z"/><path class="a" d="M142.283,41.96h-.91V151.24h.91Z"/><path class="a" d="M149.853,120.59H74.413v.91h75.44Z"/><path class="q" d="M329.573,206.93H181.463a12.767,12.767,0,0,1-12.47-13V89.62a12.754,12.754,0,0,1,12.47-13h148.11a12.76,12.76,0,0,1,12.47,13V193.9C342.013,201.09,336.453,206.93,329.573,206.93ZM181.463,77.69c-6.27,0-11.37,5.35-11.37,11.93V193.9c0,6.58,5.1,11.93,11.37,11.93h148.11c6.27,0,11.38-5.35,11.38-11.93V89.62c0-6.58-5.11-11.93-11.38-11.93Z"/><path class="r" d="M279.173,160.51h-1.11v-1.1h4.93v1.1C281.743,160.5,280.453,160.51,279.173,160.51Zm-6.06-.09c-1.65,0-3.32-.12-4.94-.21l.06-1.09c1.61.09,3.27.16,4.91.21Zm14.85-.1-.05-1.1c1.65-.07,3.31-.17,4.92-.28l.08,1.09c-1.63.12-3.29.21-4.9.29Zm-24.73-.44c-3.1-.25-4.92-.49-4.94-.49l.14-1.09s1.82.24,4.89.49Zm34.62-.27-.11-1.09c1.64-.17,3.29-.36,4.89-.57l.14,1.09C301.163,159.25,299.5,159.44,297.853,159.61Zm9.82-1.29-.17-1.08c1.63-.27,3.26-.57,4.83-.89l.22,1.08C311.013,157.75,309.323,158.05,307.673,158.32Zm9.71-2-.25-1.07c1.61-.39,3.2-.81,4.74-1.25l.31,1.05c-1.56.49-3.17.91-4.8,1.31Zm9.53-2.76-.35-1c1.57-.54,3.12-1.11,4.6-1.71l.41,1c-1.5.63-3.07,1.21-4.66,1.75Zm9.22-3.7-.46-1c1.49-.71,3-1.45,4.36-2.23l.53,1c-1.42.8-2.91,1.56-4.43,2.27Zm8.7-4.82-.59-.92c1.38-.89,2.72-1.84,4-2.82l.66.87a49.877,49.877,0,0,1-4.07,2.91Zm7.87-6.07-.74-.81c1.2-1.1,2.36-2.26,3.44-3.45l.81.73a47.279,47.279,0,0,1-3.51,3.57Zm6.67-7.37-.89-.66a47.711,47.711,0,0,0,2.71-4l.94.56c-.85,1.42-1.78,2.81-2.76,4.19Zm5.1-8.53-1-.47c.68-1.45,1.31-3,1.86-4.49l1,.37a39.23,39.23,0,0,1-1.86,4.63Zm3.37-9.34-1.06-.28a48.328,48.328,0,0,0,1-4.76l1.08.19a49.155,49.155,0,0,1-1.02,4.89Zm1.7-9.77-1.09-.11c.16-1.58.25-3.23.3-4.88h1.09c-.04,1.72-.14,3.42-.3,5.03Zm-.82-9.89c0-1.59-.16-3.24-.31-4.89l1.1-.1c.15,1.67.25,3.34.31,5Zm-.87-9.76c-.22-1.58-.49-3.21-.8-4.84l1.08-.2c.31,1.64.58,3.29.8,4.89Zm-1.79-9.62-.42-1.79c-.24-1-.51-2-.79-3l1.05-.31c.29,1,.56,2,.8,3,.15.59.29,1.2.43,1.79Zm-2.77-9.35c-.59-1.53-1.24-3-1.95-4.46l1-.48c.72,1.46,1.39,3,2,4.54ZM26.453,58.6l-1-.46c.69-1.51,1.41-3,2.13-4.47l1,.49C27.843,55.6,27.143,57.09,26.453,58.6Zm332.56-1.91c-.85-1.38-1.78-2.72-2.75-4l.87-.67c1,1.31,1.95,2.69,2.82,4.09ZM30.813,49.8l-1-.53c.79-1.46,1.61-2.91,2.43-4.31l.94.56C32.413,46.9,31.6,48.34,30.813,49.8Zm322.29-.86c-1.1-1.17-2.27-2.31-3.49-3.38l.72-.83c1.25,1.1,2.45,2.26,3.57,3.46Zm-7.29-6.43c-1.29-.93-2.65-1.84-4.06-2.7l.57-.94c1.43.88,2.82,1.8,4.13,2.76Zm-310-1.17-.93-.6c.91-1.39,1.84-2.78,2.78-4.1l.89.63c-.94,1.31-1.86,2.68-2.75,4.07ZM337.5,37.43c-1.42-.73-2.91-1.43-4.43-2.09l.43-1c1.55.67,3.06,1.38,4.5,2.11Zm-9-3.89c-1.5-.55-3.06-1.07-4.65-1.57l.32-1c1.61.49,3.19,1,4.7,1.58Zm-287-.2-.9-.65c1-1.31,2.09-2.59,3.15-3.82l.83.71c-1.05,1.19-2.1,2.46-3.11,3.76Zm277.67-2.72c-1.54-.4-3.15-.79-4.78-1.16l.24-1.07c1.65.37,3.27.77,4.82,1.17Zm-9.59-2.15c-1.57-.3-3.2-.58-4.85-.85l.18-1.08c1.66.27,3.3.55,4.87.85Zm-9.72-1.58c-1.57-.22-3.22-.43-4.88-.62l.12-1.09c1.68.19,3.33.4,4.91.62Zm-251.94-1-.79-.76c1.15-1.2,2.34-2.37,3.54-3.47l.75.8c-1.22,1.14-2.41,2.3-3.53,3.48Zm242.09-.2c-1.58-.16-3.23-.31-4.91-.46l.09-1.09c1.69.15,3.35.3,4.93.46Zm-9.83-.85c-1.56-.12-3.21-.24-4.92-.35l.08-1.09c1.7.11,3.36.22,4.93.34Zm-9.84-.66c-1.63-.09-3.27-.19-4.91-.27l.06-1.1,4.91.28Zm-9.8-.49-4.69-.24h-.24l.06-1.1h.23l4.7.23Zm-9.87-.5-4.94-.26.06-1.1,4.94.26Zm-9.87-.5c-1.74-.1-3.36-.2-4.94-.31l.08-1.09,4.92.31Zm-9.87-.65c-1.69-.13-3.35-.26-4.92-.4l.09-1.09c1.57.13,3.23.27,4.92.39Zm-9.85-.86c-1.67-.17-3.33-.35-4.91-.53l.13-1.09c1.57.18,3.22.36,4.89.53Zm-9.82-1.15c-1.67-.23-3.32-.48-4.89-.73l.17-1.08c1.57.25,3.21.49,4.87.72ZM55.083,19.3l-.69-.85c1.28-1.05,2.6-2.07,3.93-3l.64.89C57.653,17.26,56.343,18.26,55.083,19.3Zm146.41-.89c-1.65-.31-3.29-.64-4.85-1l.23-1.07c1.56.34,3.18.67,4.82,1Zm-9.67-2.13c-.72-.18-1.44-.37-2.14-.57l-2.67-.72.29-1.06,2.71.76,2.12.56Zm-9.52-2.59-4.76-1.29.28-1.06,4.76,1.3Zm-119.29-.1-.57-.9c1.4-.88,2.84-1.72,4.29-2.5l.52,1A40.87,40.87,0,0,0,63.013,13.59Zm109.75-2.47-4.75-1.23.27-1.06,4.73,1.23ZM71.633,8.93l-.46-1c1.49-.69,3-1.34,4.57-1.94l.39,1C74.613,7.61,73.1,8.26,71.633,8.93Zm91.59-.24c-1.63-.4-3.25-.78-4.8-1.14l.25-1.07c1.56.36,3.17.75,4.81,1.15Zm-9.6-2.23c-1.63-.36-3.25-.7-4.82-1l.22-1.08c1.57.32,3.2.67,4.83,1ZM80.753,5.41l-.33-1c1.56-.49,3.16-1,4.77-1.36l.27,1.06C83.873,4.47,82.293,4.92,80.753,5.41Zm63.26-.92c-1.64-.3-3.27-.59-4.85-.85l.18-1.08c1.59.26,3.22.55,4.87.86Zm-53.73-1.5-.27-1.08c1.6-.31,3.25-.59,4.9-.83l.15,1.09c-1.61.23-3.24.52-4.82.82Zm44-.1c-1.65-.24-3.29-.46-4.88-.64l.13-1.09c1.6.19,3.25.4,4.9.64Zm-9.79-1.2c-1.66-.15-3.31-.28-4.91-.37l.07-1.1c1.61.1,3.27.23,4.94.38Zm-24.48-.1L99.9.5c1.62-.15,3.28-.27,4.95-.36l.05,1.1C103.2,1.32,101.563,1.44,100.013,1.59Zm14.71-.45h-4.91V0h4.91Z"/><path class="s" d="M359.013,52.74a31.8,31.8,0,0,0-3.4-8.19l3.46-5.21-4.8-4.8-4.8-4.8-5.21,3.46a31.785,31.785,0,0,0-8.19-3.4l-1.22-6.11h-13.58l-1.26,6.11a31.756,31.756,0,0,0-8.19,3.4l-5.2-3.46-4.81,4.8-4.8,4.8,3.46,5.21a32.1,32.1,0,0,0-3.4,8.19l-6.06,1.23V67.55l6.12,1.24a32.094,32.094,0,0,0,3.4,8.19l-3.52,5.21,4.8,4.8,4.81,4.8,5.2-3.46a32.119,32.119,0,0,0,8.19,3.36l1.24,6.12h13.58l1.23-6.12a32.123,32.123,0,0,0,8.19-3.4l5.21,3.46,4.8-4.8,4.8-4.8-3.46-5.21a31.809,31.809,0,0,0,3.41-8.15l6.12-1.24V53.97Zm-31,31.81a23.728,23.728,0,1,1,.05,0Z"/><path class="t" d="M315.583,63.71H160.533a12.48,12.48,0,0,0-12.48,12.48V180.47a12.48,12.48,0,0,0,12.48,12.48h155.05a12.481,12.481,0,0,0,12.48-12.48V76.19A12.48,12.48,0,0,0,315.583,63.71Z"/><path class="a" d="M231.534,96.34a36.92,36.92,0,1,0-69.52,24.87c.28.78.58,1.55.91,2.3a36.349,36.349,0,0,0,5.72,9.19,36.93,36.93,0,0,0,62.9-36.36Zm-25.44,38.5a27.631,27.631,0,0,1-34.71-15c-.24-.56-.47-1.14-.68-1.72a27.679,27.679,0,1,1,35.39,16.74Z"/><path class="u" d="M170.343,100.52l-8.82-2.75a37,37,0,0,1,34.14-25.91l.28,9.24a27.711,27.711,0,0,0-25.6,19.42Z"/><path class="v" d="M171.383,119.82l-8.47,3.69c-.33-.75-.63-1.52-.91-2.3a36.677,36.677,0,0,1-.48-23.44l8.82,2.75a27.547,27.547,0,0,0,.36,17.58C170.913,118.69,171.143,119.26,171.383,119.82Z"/><path class="q" d="M168.633,132.69a36.406,36.406,0,0,1-5.72-9.19l8.47-3.69a27.458,27.458,0,0,0,4.29,6.9Z"/><path class="w" d="M170.933,185.8a18.711,18.711,0,0,0,16-33.83c-.38-.18-.76-.34-1.15-.5a18.71,18.71,0,0,0-14.85,34.33Zm-4.68-22.91a14,14,0,0,1,17.82-7.06c.29.12.58.24.86.38a14,14,0,1,1-18.68,6.68Z"/><path class="u" d="M191.363,162.38l4.15-2.18a18.736,18.736,0,0,1-2.95,21.52l-3.41-3.21a14.07,14.07,0,0,0,2.21-16.13Z"/><path class="v" d="M184.073,155.83l1.71-4.36c.39.16.77.32,1.15.5a18.629,18.629,0,0,1,8.58,8.23l-4.15,2.18a14,14,0,0,0-6.43-6.17C184.653,156.07,184.363,155.95,184.073,155.83Z"/><path class="q" d="M180.443,150.23a18.8,18.8,0,0,1,5.34,1.24l-1.71,4.36a13.9,13.9,0,0,0-4-.93Z"/><path class="q" d="M328.064,76.18V180.47a12.481,12.481,0,0,1-12.48,12.48h-68.65V63.69h68.65a12.472,12.472,0,0,1,12.48,12.49Z"/><path class="x" d="M316.013,77.12h-57.02a1.63,1.63,0,0,0-1.63,1.63v3.31a1.63,1.63,0,0,0,1.63,1.63h57.02a1.63,1.63,0,0,0,1.63-1.63V78.75A1.63,1.63,0,0,0,316.013,77.12Z"/><path class="s" d="M316.013,91.2h-57.02a1.63,1.63,0,0,0-1.63,1.63v3.31a1.63,1.63,0,0,0,1.63,1.63h57.02a1.63,1.63,0,0,0,1.63-1.63V92.83A1.63,1.63,0,0,0,316.013,91.2Z"/><path class="s" d="M312.173,107.36h-49.34a5.47,5.47,0,0,0-5.47,5.47v63.32a5.47,5.47,0,0,0,5.47,5.47h49.34a5.47,5.47,0,0,0,5.47-5.47V112.83A5.47,5.47,0,0,0,312.173,107.36Z"/><g class="y"><path class="z" d="M268.1,104.2h-7.94a6.73,6.73,0,0,0-6.73,6.73v41.58a6.73,6.73,0,0,0,6.73,6.73h7.94a6.73,6.73,0,0,0,6.73-6.73V110.93A6.73,6.73,0,0,0,268.1,104.2Z"/></g><path class="a" d="M251.613,57.74H114.053v.91h137.56Z"/><path class="q" d="M127.833,50.18a7.389,7.389,0,1,1,5.206-2.164A7.383,7.383,0,0,1,127.833,50.18Zm0-13.65a6.279,6.279,0,1,0,4.435,1.843A6.279,6.279,0,0,0,127.833,36.53Z"/><path class="e" d="M108.063,134.2s6.89,1.23,6.95,7.06-5.27,14.28-8.74,13.66-7.41-3.71-7.28-7.25,1.12-8.21,2.72-10.77S106.143,134.07,108.063,134.2Z"/><path class="j" d="M99.234,144.96s0,1.19,2.38,2.14,6.72-.38,7.82-.16,1.41-.31,1.41-.31l.08,1.16.92.63s.65-3.1,2.6-3.36,3.57-9.17-4.82-10.85c0,0-6.22-1.69-7.82,1.46S98.934,142.74,99.234,144.96Z"/><g class="aa"><path class="ab" d="M150.553,176.3H96.583a8.05,8.05,0,0,0-8.05,8.05v53.97a8.05,8.05,0,0,0,8.05,8.05h53.97a8.05,8.05,0,0,0,8.05-8.05V184.35A8.05,8.05,0,0,0,150.553,176.3Z"/></g><path class="x" d="M146.164,63.71H90.123a7.02,7.02,0,0,0-7.02,7.02v39.18a7.02,7.02,0,0,0,7.02,7.02h56.041a7.02,7.02,0,0,0,7.02-7.02V70.73A7.02,7.02,0,0,0,146.164,63.71Z"/><path class="x" d="M151.613,186.6h-23.92a1.65,1.65,0,0,0-1.65,1.65v4.24a1.65,1.65,0,0,0,1.65,1.65h23.92a1.65,1.65,0,0,0,1.65-1.65v-4.24A1.65,1.65,0,0,0,151.613,186.6Z"/><path class="x" d="M149.473,197.97h-19.64a3.79,3.79,0,0,0-3.79,3.79v32.37a3.79,3.79,0,0,0,3.79,3.79h19.64a3.79,3.79,0,0,0,3.79-3.79V201.76A3.79,3.79,0,0,0,149.473,197.97Z"/><path class="x" d="M104.283,207.85a12.5,12.5,0,0,0,16.53-11.7v-.84a12.661,12.661,0,0,0-.73-3.6,12.53,12.53,0,1,0-15.79,16.14Zm-5.37-12a9.39,9.39,0,0,1,18.21-3.09,9.269,9.269,0,0,1,.55,2.69v.63a9.38,9.38,0,0,1-9.51,9.27,9.536,9.536,0,0,1-2.89-.5,9.371,9.371,0,0,1-6.36-8.98Z"/><path class="u" d="M115.723,201.74l2.48,1.92a12.53,12.53,0,0,1-13.92,4.19l1-3a9.511,9.511,0,0,0,2.89.5,9.377,9.377,0,0,0,7.55-3.61Z"/><path class="v" d="M117.673,195.48l3.13-.17v.84a12.51,12.51,0,0,1-2.62,7.51l-2.48-1.92a9.432,9.432,0,0,0,2-5.63C117.683,195.9,117.683,195.69,117.673,195.48Z"/><path class="v" d="M117.673,195.48a9.269,9.269,0,0,0-.55-2.69l2.95-1.07a12.661,12.661,0,0,1,.73,3.6Z"/><path class="q" d="M100.763,185.99a12.529,12.529,0,0,1,19.31,5.7l-2.95,1.08a9.39,9.39,0,0,0-8.71-6.18,9.28,9.28,0,0,0-5.81,1.93Z"/><path class="ac" d="M16.033,87.42l15.09-23.58-7.66,3.47Z"/><path class="ad" d="M16.033,87.42l.92-14.21,5.48-3.13Z"/><path class="ae" d="M27.653,69.26l1.88,2.48-13.5,15.68Z"/><path class="e" d="M120.9,179.9a2.118,2.118,0,0,0,1.07-.49c.67-.69.74-2.15,2.1-2.25s2.63,4,2.41,4.89-2,1.53-4.89,1.4S120.9,179.9,120.9,179.9Z"/><path class="e" d="M123.613,177.26a42.557,42.557,0,0,1,4-1.77c1.9-.72,4.25-1.23,4.51-.91.57.73-1.65,1.24-3.49,2.08a13.966,13.966,0,0,0-1.41.64,14.216,14.216,0,0,1,1.87-.53c2.15-.53,4.39-.86,4.67-.46.14.19.39.88-.51.85.47-.09.4-.17.44,0,.24,1-2.81,2.22-4,2.72.94-.38,1.66-.56,1.41.15s-4.68,2.4-6.21,3.11S123.613,177.26,123.613,177.26Z"/><path class="af" d="M91.013,151.38a50.8,50.8,0,0,0-7.34,0c-3,.31-7.24,2.79-9.78,3.51s-8.67,4.84-8.5,5.4A45.622,45.622,0,0,0,72.323,173C76.073,177.69,91.013,151.38,91.013,151.38Z"/><path class="ag" d="M81.713,154.08s-4.64,3.43-6.25,6.58a25.387,25.387,0,0,0-2.17,6.9Z"/><path class="ah" d="M85.233,256.37a11.021,11.021,0,0,0,2.09,1.78c.76.37,9.92,2,10.54,2.69s.62,3.69-1.74,3.69H84.563c-1.33,0-6.92,1.16-7.5,0s-.52-6.57.51-7.87S85.233,256.37,85.233,256.37Z"/><path class="ai" d="M84.953,254.69l.28,1.65s-2.45,1.12-7.66.29v-1.7Z"/><path class="ah" d="M29.363,251.81a9.1,9.1,0,0,0-1.53,2.74c-.32,1-1.86,5.59-1.2,6.71s5.88,1.28,8.49.87,8.28.45,8.86-.67.91-2.75-.79-3.38-5.59-2.29-6.29-4S29.363,251.81,29.363,251.81Z"/><path class="ai" d="M37.623,252.19l-.72,1.86s-7.48-.56-7.54-2.24l2.36-3.43Z"/><path class="e" d="M99.013,148.2s-4.17,3.54-5.35,3.25,4.08,7.49,4.08,7.49,5-4.94,6.16-5.09S99.013,148.2,99.013,148.2Z"/><path class="af" d="M99.283,162.18c-1.41.85-1.65,1.13-1.49,5.19s1.85,7.33,2,8.45,2.37,12.21,3,12.83,8-.83,9.54-1.29c2.25-.7,11.77-3.92,11.77-3.92l-2.1-4.37s-12,2.68-12.39,1.74-1.33-8.82-1.66-10.53.24-4.4-1.8-8.46C104.3,158.18,99.283,162.18,99.283,162.18Z"/><path class="aj" d="M85.2,192.69s2.55,2.71,3.26,3.59a141.408,141.408,0,0,1,12.34,19c.83,1.93-4.1,15.6-6.13,20.37-1.06,2.51-8.09,19.76-7.87,20.14s-7.43.65-10.85-1.12c0,0,4.92-14.59,6-17.44,1.57-4.32,7-16.28,7.17-17.44s-8.78-10.73-11.76-12.55-10.35-8.23-11.15-9.06-5.53-3-5.08-7.23a14.648,14.648,0,0,1,3.56-7.51Z"/><path class="aj" d="M71.823,203.1s-.47,1.22-1.12,2.94c-1.4,3.69-3.67,9.64-4,10.58-.55,1.39-3.32,7.35-4.64,8.51s-23.19,27.33-23.24,27.56-8.17-4-8.67-5.57c0,0,11.82-15.41,13.64-17.67s5.63-5.64,6.9-11,10.38-26,10.41-26.73c0,0,1.46-6.35,3.59-8.28s9.86.33,11.07,4.36S71.823,203.1,71.823,203.1Z"/><path class="af" d="M93.273,151.41l1.74-.72a13.187,13.187,0,0,1,7,4.58l-.22,1.07S95.013,154.9,93.273,151.41Z"/><path class="ag" d="M100.064,177.34a7.387,7.387,0,0,1-.831,1l-.46.38-.17-6.68s.84,2.57,1,2.95A22.425,22.425,0,0,1,100.064,177.34Z"/><path class="ak" d="M71.823,203.1s-.47,1.22-1.12,2.94c-1.48-1.71-4.87-8.17-4.87-8.17.22.16.93.83,1.09,1Z"/><path class="e" d="M109.753,146.41c.16-.5-.22-2.44-1.45-1.33s-1.23,3.56-.54,3.77S109.363,147.69,109.753,146.41Z"/><path class="j" d="M105.144,135.56s-6-4.25-6,10.24Z"/><path class="af" d="M100.063,177.34a7.322,7.322,0,0,1-.83,1l-.46.38a69.916,69.916,0,0,1-7.22,4.92c-1.93,1.05-5.59,9.89-5.59,9.89s-17.3-1.17-21.27-10.11a78.014,78.014,0,0,1,5.38-10c2.57-3.73,8.2-17.15,11.18-19.06s5.55-3.14,11.43-3a12.33,12.33,0,0,1,9.14,4.83s4.48,4.81,4.92,7.35C107.123,165.74,102.263,174.27,100.063,177.34Z"/><path class="q" d="M153.183,70.69l-.12,3.89H83.013l.12-3.89a7,7,0,0,1,7-7h56a7,7,0,0,1,7.05,7Z"/><path class="a" d="M105.083,112.44H91.013a3.3,3.3,0,0,1-3.3-3.3V81.03a3.3,3.3,0,0,1,3.3-3.34h14.1a3.31,3.31,0,0,1,3.31,3.3V109.1a3.31,3.31,0,0,1-3.34,3.34ZM91.013,78.83a2.21,2.21,0,0,0-2.2,2.2v28.11a2.21,2.21,0,0,0,2.2,2.21h14.1a2.209,2.209,0,0,0,2.21-2.21V81.03a2.21,2.21,0,0,0-2.21-2.2Z"/><path class="a" d="M146.823,78.28h-33.59a1.1,1.1,0,0,0-1.1,1.1v.72a1.1,1.1,0,0,0,1.1,1.1h33.59a1.1,1.1,0,0,0,1.1-1.1v-.72A1.1,1.1,0,0,0,146.823,78.28Z"/><path class="a" d="M146.823,84.22h-33.59a1.1,1.1,0,0,0-1.1,1.1v.72a1.1,1.1,0,0,0,1.1,1.1h33.59a1.1,1.1,0,0,0,1.1-1.1v-.72A1.1,1.1,0,0,0,146.823,84.22Z"/><path class="w" d="M228.383,154.36H206.2a1.7,1.7,0,0,0-1.7,1.7v3.42a1.7,1.7,0,0,0,1.7,1.7h22.18a1.7,1.7,0,0,0,1.7-1.7v-3.42A1.7,1.7,0,0,0,228.383,154.36Z"/><path class="q" d="M228.383,165.48H206.2a1.7,1.7,0,0,0-1.7,1.7v3.42a1.7,1.7,0,0,0,1.7,1.7h22.18a1.7,1.7,0,0,0,1.7-1.7v-3.42A1.7,1.7,0,0,0,228.383,165.48Z"/><path class="v" d="M228.383,176.6H206.2a1.7,1.7,0,0,0-1.7,1.7v3.42a1.7,1.7,0,0,0,1.7,1.7h22.18a1.7,1.7,0,0,0,1.7-1.7V178.3A1.7,1.7,0,0,0,228.383,176.6Z"/><path class="x" d="M94.323,69.63a3,3,0,1,1-.879-2.121A3,3,0,0,1,94.323,69.63Z"/><path class="v" d="M323.383,174.9s12.38,4,15.24,3.29c1.51-.37,3.87-2.52,6.07-4.83l1.07-1.15c2.42-2.66,4.4-5.2,4.4-5.2s6-7,1.18-10.16a6.442,6.442,0,0,0-3.73,1.92,24.7,24.7,0,0,0-3.53,5.38c-.42.91-6.3,9.41-6.61,9.6s-2.88-.49-4.94-.66a44.869,44.869,0,0,1-8.4-2Z"/><path class="al" d="M340.4,251.17s-1.57,2.81-2.51,3.39c-1.17.71-3.43,3-4.22,3.09s-3.63.61-3.08,2.22c.45,1.31,7.22,1.12,8,.46s3.05-3,4-3,.58,3.42.58,3.42h1s.35-3.27.39-3.83c.13-1.67-1.06-2.89-1.11-3.84s-.11-1.65-.11-1.65Z"/><path class="e" d="M333.9,257.58a5.391,5.391,0,0,0,3.95-.22c1.72-1,5-2.49,6.18-2.5,0,0-.63-1.94-.64-2.16s-.09-1.24-.09-1.24l-2.88-.47a24.776,24.776,0,0,1-2.7,3.4A45.1,45.1,0,0,0,333.9,257.58Z"/><path class="e" d="M367.643,253.82a11.742,11.742,0,0,1-.59,2.48c-.3.53-1.14,3.24-1.52,3.75s-1.21,4.3,0,4.76,4.08,1.22,5.05-.3a6.272,6.272,0,0,0,.93-4.21c-.15-1.16-1.31-6.51-1.29-7S367.643,253.82,367.643,253.82Z"/><path class="al" d="M366.013,259s-.13,2.95,2.1,2.95,3.21-2.69,3.21-2.69.76,1.32,0,4.13-3.92,2.23-4.63,2.13S362.633,264.53,366.013,259Z"/><path class="u" d="M364.013,186.57a36.1,36.1,0,0,1,3.9,6.1c1,2.43,2.71,7.76,2.48,11.88s-1.58,11.86-1.18,13.61.79,5.37,1.21,6.61,2.12,4.86,2.29,8.59-1.21,20.08-1.09,21.61-4.94.59-4.94.59-.13-14.74-.69-17.28-1.25-11.19-1.75-11.81-1.94-7.18-2-8.25-6.13-18.95-6.47-22-7.91-9.65-7.91-9.65A26.4,26.4,0,0,1,364.013,186.57Z"/><path class="u" d="M345.194,251.97c1.07-.16,3.95-16.69,3.61-19.63s-.68-9.2.28-11.74c.63-1.67,4.57-10.17,7.22-16.14l1-2.35a26.081,26.081,0,0,0,1.41-3.6c.06-1.13,3.74-20.6-10.81-11.94a17.673,17.673,0,0,1-.32,2.11c-.17.56-4.061,15-4.461,20.5a110.919,110.919,0,0,1-1.579,11.42,24.381,24.381,0,0,0,.51,6.15c.34,1-2.21,24-2.38,24.54S344.124,252.14,345.194,251.97Z"/><path class="f" d="M353.644,155.82a29.135,29.135,0,0,1-3.71,1.49c-1,.19-4.67,5-5.32,6.77s0,4.4,1.34,7.5.07,4.13.68,7.22a70.58,70.58,0,0,1,1,11.38c-.11,1.72,15.47,2,19-1.08,0,0-3.57-5.36-4-6.12s-.08-4.94.34-6,3.41-9.91,3.41-9.91,2.11-7.26,0-8.86c-1.8-1.4-6.7-1.9-7.58-2.2A15.013,15.013,0,0,0,353.644,155.82Z"/><path class="g" d="M352.763,161.96l-1.68-2,1.46-5.16A33.883,33.883,0,0,1,352.763,161.96Z"/><path class="e" d="M352.333,152.69s.54,5.06.43,6.7c0,0,2.86,2.87,6.11-3.34a8.588,8.588,0,0,1-.33-6.06C359.573,146.45,352.333,152.69,352.333,152.69Z"/><path class="e" d="M352.763,159.34v2.62l3.29-2.46Z"/><path class="g" d="M352.763,161.96l1.37-1.69,4.6-4.59,1.49,1.44Z"/><path class="v" d="M358.013,192.69c1.29,6.21,10.67-.7,10.67-.7s-6.08-10.22-3.66-18.38l.06-.2c.15-.51.31-1,.46-1.47a1.044,1.044,0,0,1,.08-.25c.53-1.61,1-2.94,1.31-4,1.08-3.36,1.4-4.47,1.4-4.47s-.46-5.23-3.05-5.8-5.33-1.12-5.33-1.12-4.49,5.74-4.67,8.32S356.753,186.45,358.013,192.69Z"/><path class="v" d="M344.234,165.27a16.563,16.563,0,0,0,2.15,8.23s-.05,6.26-.13,8.44-.59,10.42-.59,10.42l2.68,1.57a.761.761,0,0,0,1.14-.74c-.76-6.27-3.23-30.07,2.12-36.46l-2.39.82S344.234,162.78,344.234,165.27Z"/><path class="h" d="M351.083,160l-2.1.58,3.56-5.74Z"/><path class="h" d="M354.133,160.27l1.92,2.52,3.94-6.55-1.26-.56Z"/><path class="e" d="M354.323,136.34a6.86,6.86,0,0,0-7.49,5.93,16.3,16.3,0,0,0,.39,2.6c.3,1.15-.88,4.45-.62,4.62a7.174,7.174,0,0,0,1.34.44s1,3.71,2.29,3.74a10.65,10.65,0,0,0,8.69-5.18C361.423,144.06,362.453,137.12,354.323,136.34Z"/><path class="am" d="M346.833,142.27a18.2,18.2,0,0,0,6.41,3c3.23.6,5,6.23,5,6.23s5.42-8.15,1.66-13.37S346.423,136,346.833,142.27Z"/><path class="e" d="M354.6,145.18a1,1,0,0,1,1.78-.63c1,.91-.54,3.84-1.37,3.51S354.553,145.83,354.6,145.18Z"/><path class="l" d="M352.323,153.37c.07.4.15.86.21,1.34a14,14,0,0,0,4.13-3.51A15.819,15.819,0,0,1,352.323,153.37Z"/><g class="an"><path class="ao" d="M294.653,187.51l40.2.2a4,4,0,0,0,4-4l.13-26.82a4,4,0,0,0-4-4l-40.2-.2a4,4,0,0,0-4,4l-.13,26.82a4,4,0,0,0,4,4Z"/></g><path class="ap" d="M312.553,184.82l20.49.1a2.609,2.609,0,0,0,2.62-2.6l.12-22.79a2.62,2.62,0,0,0-2.6-2.63l-20.5-.1a2.612,2.612,0,0,0-2.62,2.6l-.11,22.79a2.612,2.612,0,0,0,1.6,2.427A2.605,2.605,0,0,0,312.553,184.82Z"/><path class="ap" d="M307.679,184.889l-11.84-.058a.729.729,0,0,1-.726-.733l.014-2.81a.731.731,0,0,1,.733-.727l11.84.058a.739.739,0,0,1,.522.22.737.737,0,0,1,.214.524l-.013,2.81a.765.765,0,0,1-.058.283.749.749,0,0,1-.162.239.733.733,0,0,1-.241.159.724.724,0,0,1-.283.055Z"/><path class="ap" d="M295.513,179.24l12.52.06a.4.4,0,0,0,.4-.4v-.46a.4.4,0,0,0-.4-.4l-12.51-.07a.4.4,0,0,0-.4.4v.47a.394.394,0,0,0,.027.152.392.392,0,0,0,.363.248Z"/><path class="e" d="M340.473,176.45a1.5,1.5,0,0,1-.84-.06c-.62-.29-1-1.26-2-1s-.75,3.36-.39,3.88,1.75.52,3.62-.29S340.473,176.45,340.473,176.45Z"/><path class="e" d="M338.014,175.36a28.993,28.993,0,0,0-3.13-.18c-1.45,0-3.13.24-3.24.52s1.46.21,2.9.31,1.06.28,1.06.28a5.538,5.538,0,0,0-1.39.11c-1.57.19-3.15.53-3.24.87-.05.16,0,.25.61.28-.34,0-.36.15-.35.28.08.71,2.45.79,3.38.82-.72,0-1.25,0-.9.45s3.73.43,4.94.53S338.014,175.36,338.014,175.36Z"/><path class="am" d="M357.623,144.05c-1,2.26-.39,4.7,1.34,5.46s3.94-.45,4.93-2.7.39-4.7-1.34-5.46S358.613,141.8,357.623,144.05Z"/><path class="v" d="M365.853,157.55a6.38,6.38,0,0,0-3.84,2.45,28.307,28.307,0,0,0-2.81,5.77c-.25,1-5.06,9.95-5.33,10.19s-2.92,0-5,.25a45.7,45.7,0,0,1-8.62-.46l-.05,3.88s12.9,1.7,15.58.5c3.3-1.44,11.23-12.57,11.23-12.57S371.153,159.77,365.853,157.55Z"/><path class="u" d="M360.644,175.69l5-4c.53-1.61,1-2.94,1.31-4C367.014,167.63,361.884,174.31,360.644,175.69Z"/><path class="u" d="M344.693,173.36l1.07-1.15a27.9,27.9,0,0,1-1.45-5.15A22.353,22.353,0,0,0,344.693,173.36Z"/><path class="s" d="M306.543,160.1a5.859,5.859,0,0,0-5.71-3.9,6.109,6.109,0,0,0-1.81.34,5.851,5.851,0,0,0-3.63,3.78,5.923,5.923,0,0,0,.07,3.74c.05.12.1.25.15.36a5.5,5.5,0,0,0,.91,1.47,5.88,5.88,0,0,0,10-5.79Zm-4,6.13a4.414,4.414,0,0,1-5.53-2.39c0-.09-.08-.19-.11-.28a4.39,4.39,0,0,1,2.67-5.63,4.266,4.266,0,0,1,1.35-.26,4.41,4.41,0,0,1,1.62,8.56Z"/><path class="s" d="M296.794,160.76l-1.4-.44a5.851,5.851,0,0,1,3.63-3.78,6.1,6.1,0,0,1,1.81-.34v1.47a4.255,4.255,0,0,0-1.35.26,4.387,4.387,0,0,0-2.69,2.83Z"/><path class="s" d="M297.013,163.84l-1.35.58c-.05-.11-.1-.24-.15-.36a5.923,5.923,0,0,1-.07-3.74l1.4.44a4.407,4.407,0,0,0,.06,2.8A.28.28,0,0,0,297.013,163.84Z"/><path class="s" d="M296.523,165.89a5.5,5.5,0,0,1-.91-1.47l1.35-.58a4.381,4.381,0,0,0,.68,1.09Z"/><path class="s" d="M299.923,170.42a2.417,2.417,0,0,0-2.35-1.6,2.1,2.1,0,0,0-.74.14,2.368,2.368,0,0,0-1.49,1.55,2.324,2.324,0,0,0,0,1.54l.06.15a2.317,2.317,0,0,0,.37.6,2.42,2.42,0,0,0,4.12-2.38Zm-1.67,2.52a1.829,1.829,0,0,1-2-.53,2.117,2.117,0,0,1-.28-.45v-.12a1.81,1.81,0,0,1,0-1.15,1.84,1.84,0,0,1,1.68-1.27,1.81,1.81,0,0,1,.66,3.52Z"/><path class="s" d="M295.913,170.69l-.57-.18a2.368,2.368,0,0,1,1.49-1.55,2.1,2.1,0,0,1,.74-.14v.6a1.838,1.838,0,0,0-1.66,1.27Z"/><path class="s" d="M296.013,171.96l-.55.24-.06-.15a2.337,2.337,0,0,1,0-1.54l.57.18a1.81,1.81,0,0,0,0,1.15A.4.4,0,0,1,296.013,171.96Z"/><path class="s" d="M295.8,172.8a2.292,2.292,0,0,1-.37-.6l.55-.24a2.117,2.117,0,0,0,.28.45Z"/><path class="a" d="M117.233,96.2h-4.27v15.7h4.27Z"/><path class="a" d="M123.313,94.61h-4.27v17.28h4.27Z"/><path class="a" d="M129.463,97.9h-4.27v14h4.27Z"/><path class="a" d="M135.624,91.41h-4.27v20.48h4.27Z"/><path class="a" d="M142.083,93.45h-4.27v18.44h4.27Z"/></svg>